<svg id="Capa_1" data-name="Capa 1" xmlns="http://www.w3.org/2000/svg" viewBox="0 0 14 16"><defs><style>.cls-1{fill:#fe6700;}.cls-2{fill:#febf94;}.cls-3{fill:#feb17d;}.cls-4{fill:#fed0b0;}.cls-5{fill:#feddc6;}.cls-6{fill:#fee2cf;}.cls-7{fill:#fe822e;}.cls-8{fill:#fea86d;}.cls-9{fill:#fefefe;}</style></defs><path class="cls-1" d="M13.61,6.69a1.87,1.87,0,0,0-.3.26A.67.67,0,0,0,13.5,8a1,1,0,0,0,.4.14.74.74,0,0,0-.43.85c.08.37.41.46.72.58a.81.81,0,0,0,.39,1.47,2,2,0,0,0-.3.36.57.57,0,0,0,.35.87s.07,0,.1.06.23.09.22.26a1,1,0,0,0,0,.17c0,.23.06.43-.21.55a.36.36,0,0,0-.19.29c0,.12-.09.16-.2.19l-2.48.58-.1,0a.39.39,0,0,1-.11.06,6,6,0,0,0-.95.23,15.37,15.37,0,0,1-1.62.41s-.07,0-.1.06l-1.88.45-1,.23s-.07,0-.1.05-.22,0-.31.1h-.1a.42.42,0,0,1-.16-.23,1.69,1.69,0,0,0-1.25-1,4.2,4.2,0,0,0-.71-.11.21.21,0,0,1-.23-.19c-.1-.43-.22-.85-.32-1.28L2.45,11c-.34-1.37-.69-2.73-1-4.1-.13-.53-.29-1-.38-1.59A.92.92,0,0,0,1,5V5A2.5,2.5,0,0,0,2.36,2.47c0-.12,0-.15.12-.18l2.25-.56s.07,0,.1-.06L7.35,1s.07,0,.1-.06C8.34.75,9.24.54,10.12.3c.35-.1.7-.18,1.05-.29a.16.16,0,0,1,.19.06c.14.18.29.36.56.32,0,0,.07,0,.07.06a.35.35,0,0,0,0,.11.49.49,0,0,1-.14.59.65.65,0,0,0,.34,1.08l.18,0a.87.87,0,0,0-.35.91c.11.39.44.49.81.56l-.19.17A.68.68,0,0,0,13,5.13l.17,0c0,.09-.09.12-.14.18a.79.79,0,0,0-.23.79.68.68,0,0,0,.6.5C13.49,6.68,13.57,6.63,13.61,6.69Z" transform="translate(-1 0)"/><path class="cls-2" d="M13.61,6.69c-.07,0-.13,0-.17-.06S13.58,6.61,13.61,6.69Z" transform="translate(-1 0)"/><path class="cls-3" d="M4.83,1.67c0,.06,0,.07-.1.06S4.78,1.67,4.83,1.67Z" transform="translate(-1 0)"/><path class="cls-4" d="M7.45,1a.08.08,0,0,1-.1.06A.08.08,0,0,1,7.45,1Z" transform="translate(-1 0)"/><path class="cls-5" d="M14.73,12.34a.07.07,0,0,1-.1-.06A.08.08,0,0,1,14.73,12.34Z" transform="translate(-1 0)"/><path class="cls-6" d="M11.68,14.47c0-.07.06-.06.11-.06A.09.09,0,0,1,11.68,14.47Z" transform="translate(-1 0)"/><path class="cls-7" d="M9,15.17a.09.09,0,0,1,.1-.06C9.1,15.18,9.06,15.18,9,15.17Z" transform="translate(-1 0)"/><path class="cls-8" d="M6.07,15.9c0-.06.06-.06.1-.05S6.12,15.91,6.07,15.9Z" transform="translate(-1 0)"/><path class="cls-9" d="M7.22,11c0,.14-.08.14-.15.16-.48.13-1,.25-1.45.39l-.92.28c-.13,0-.19,0-.23-.13-.36-1.42-.73-2.84-1.1-4.26,0-.13-.06-.27-.1-.4s0-.14.1-.16l.41-.11c.66-.22,1.34-.39,2-.57.13,0,.18,0,.22.11.09.28.19.54.3.81,0,.11,0,.14-.1.18-.43.16-.88.26-1.32.38-.1,0-.14.06-.1.18a1.67,1.67,0,0,1,.1.4c0,.14.08.18.23.13s.57-.15.85-.23c.12,0,.18,0,.2.11.07.28.14.55.22.83,0,.11,0,.16-.11.18a7,7,0,0,0-.92.28c-.09,0-.12.06-.09.16s.09.36.14.55.06.11.16.08L6.86,10c.13,0,.2,0,.22.14S7.17,10.72,7.22,11Z" transform="translate(-1 0)"/><path class="cls-9" d="M8.37,8.24A2.16,2.16,0,0,1,9,6.72a2,2,0,0,1,2.45-.15A2,2,0,0,1,12.31,8c0,.12-.06.15-.14.17l-2,.54-.37.13c-.07,0-.07.06,0,.12a.86.86,0,0,0,1.33-.19.29.29,0,0,1,.28-.21c.27,0,.53,0,.79-.06.11,0,.15,0,.13.13a2,2,0,0,1-1.15,1.46,1.65,1.65,0,0,1-1.17.15A2,2,0,0,1,8.41,8.66,2,2,0,0,1,8.37,8.24Z" transform="translate(-1 0)"/><path class="cls-9" d="M8.7,10.58c0,.09,0,.1-.11.11l-.6.16a3.4,3.4,0,0,1-.34.12c-.07,0-.12,0-.14-.08C7.15,9.5,6.79,8.13,6.44,6.75c-.05-.19-.09-.37-.15-.56s0-.13.1-.16l.89-.27c.13,0,.18,0,.22.13.22.89.45,1.78.68,2.67.17.65.33,1.3.5,1.95C8.69,10.53,8.69,10.56,8.7,10.58Z" transform="translate(-1 0)"/><path class="cls-1" d="M10.51,7.2a.57.57,0,0,1,.44.26c.05.09.07.14,0,.17L9.66,8c-.14,0-.16,0-.13-.12a.4.4,0,0,1,.07-.19A1,1,0,0,1,10.51,7.2Z" transform="translate(-1 0)"/></svg>