<svg id="Capa_1" data-name="Capa 1" xmlns="http://www.w3.org/2000/svg" viewBox="0 0 16 6.85"><defs><style>.cls-1{fill:#fe6600;}.cls-2{fill:#fe6700;}.cls-3{fill:#fe9a57;}.cls-4{fill:#fe7111;}.cls-5{fill:#fe8330;}.cls-6{fill:#fe8e43;}.cls-7{fill:#feb07c;}.cls-8{fill:#fec9a5;}.cls-9{fill:#febc91;}.cls-10{fill:#fea569;}.cls-11{fill:#fee7d8;}.cls-12{fill:#fed4b9;}.cls-13{fill:#fef3eb;}.cls-14{fill:#fe7a21;}.cls-15{fill:#fedec8;}.cls-16{fill:#fefefe;}.cls-17{fill:#febf94;}.cls-18{fill:#feb17d;}.cls-19{fill:#fed0b0;}.cls-20{fill:#feddc6;}.cls-21{fill:#fee2cf;}.cls-22{fill:#fe822e;}.cls-23{fill:#fea86d;}</style></defs><path class="cls-1" d="M16,9.56V10a.18.18,0,0,1-.09.08,2.49,2.49,0,0,0-.3.19,1,1,0,0,0-.28.39,1.06,1.06,0,0,0-.09.25.11.11,0,0,1-.1.08H6.23a.15.15,0,0,1-.18-.1.28.28,0,0,0-.17-.15.11.11,0,0,1-.09-.13v-.11a.1.1,0,0,1,.08-.1A.29.29,0,0,0,6,10.34.22.22,0,0,0,6,10L5.87,10s0-.06,0-.1L6,9.75a.22.22,0,0,0,0-.32l-.11-.11c-.06,0-.06-.07,0-.12a.27.27,0,0,0,.08-.07.23.23,0,0,0,0-.36.27.27,0,0,0-.08-.07c-.07,0-.07-.09,0-.14A.28.28,0,0,0,6,8.33.26.26,0,0,0,6,8.11L5.86,8s0-.06,0-.09h0A.24.24,0,0,0,6,7.7a.29.29,0,0,0-.15-.26c-.12-.07-.12-.08,0-.15a.27.27,0,0,0,0-.47l-.07,0s0-.07,0-.09A.33.33,0,0,0,6,6.55a.26.26,0,0,0-.13-.36h0a.07.07,0,0,1,0,0s0,0,0-.06A.33.33,0,0,0,6,6a.2.2,0,0,0,0-.3l-.11-.08a.11.11,0,0,1-.06-.09V5.27a.09.09,0,0,1,.08-.1A.22.22,0,0,0,6.06,5a.09.09,0,0,1,.07,0h9c.1,0,.09,0,.12.09a1.37,1.37,0,0,0,.23.47.79.79,0,0,0,.41.25c.11,0,.11,0,.11.14V9.21C16,9.33,16,9.45,16,9.56Z" transform="translate(0 -5.01)"/><path class="cls-2" d="M5.13,8.06,5,8.16a.28.28,0,0,0,.08.44.44.44,0,0,0,.16.06A.29.29,0,0,0,5.08,9c0,.15.17.19.29.24a.33.33,0,0,0,.16.6.88.88,0,0,0-.12.15.23.23,0,0,0,.14.35s0,0,0,0,.1,0,.09.1,0,0,0,.07,0,.18-.08.22a.13.13,0,0,0-.08.12.1.1,0,0,1-.08.08l-1,.24H4.39l0,0a2.48,2.48,0,0,0-.39.1c-.21.08-.44.11-.66.17l0,0-.76.18-.39.09,0,0a.28.28,0,0,0-.13,0h0s0-.06-.07-.1a.68.68,0,0,0-.51-.42A1.37,1.37,0,0,0,1,11.29c-.06,0-.09,0-.1-.08s-.09-.34-.13-.52-.15-.58-.22-.86L.17,8.15C.12,7.94.05,7.73,0,7.51c0,0,0-.09,0-.12v0a1,1,0,0,0,.55-1s0-.06,0-.07L1.52,6l0,0,1-.26,0,0,1.08-.28.43-.11s.06,0,.08,0,.12.15.23.13l0,0a.06.06,0,0,0,0,0,.21.21,0,0,1-.06.24.27.27,0,0,0,.14.44l.07,0a.34.34,0,0,0-.14.37c0,.16.18.2.33.23l-.08.07a.28.28,0,0,0,.15.49H5s0,.06,0,.08a.33.33,0,0,0-.1.32A.3.3,0,0,0,5.07,8S5.12,8,5.13,8.06Z" transform="translate(0 -5.01)"/><path class="cls-3" d="M16,8.47V8.12h0v.35Z" transform="translate(0 -5.01)"/><path class="cls-4" d="M16,9.56a.5.5,0,0,1,0-.21.66.66,0,0,1,0-.14s0,0,0,0Z" transform="translate(0 -5.01)"/><path class="cls-5" d="M16,9.07V8.73h0v.34Z" transform="translate(0 -5.01)"/><path class="cls-6" d="M16,8.73h0V8.47h0Z" transform="translate(0 -5.01)"/><path class="cls-7" d="M16,7.88V7.63h0v.25Z" transform="translate(0 -5.01)"/><path class="cls-8" d="M16,7.39V7.14h0v.25Z" transform="translate(0 -5.01)"/><path class="cls-9" d="M16,7.39h0v.24h0Z" transform="translate(0 -5.01)"/><path class="cls-10" d="M16,7.88h0v.24h0Z" transform="translate(0 -5.01)"/><path class="cls-11" d="M16,6.78V6.53s0,0,0,0v.25Z" transform="translate(0 -5.01)"/><path class="cls-12" d="M16,7.14h0V6.91h0Z" transform="translate(0 -5.01)"/><path class="cls-13" d="M16,6.53h0V6.3h0Z" transform="translate(0 -5.01)"/><path class="cls-14" d="M16,9.07h0v.14h0Z" transform="translate(0 -5.01)"/><path class="cls-15" d="M16,6.91h0V6.78h0Z" transform="translate(0 -5.01)"/><path class="cls-16" d="M12.69,8.41h-.5s0,0,0,0,0,0,0,.06a.34.34,0,0,0,.32.15.36.36,0,0,0,.23-.13.08.08,0,0,1,.08,0l.34.06s.06,0,0,.07,0,0,0,0A.78.78,0,0,1,12,8.94a.83.83,0,0,1-.26-1.13.85.85,0,0,1,.37-.33.64.64,0,0,1,.57,0,.79.79,0,0,1,.54.65.76.76,0,0,1,0,.26s0,.05-.07.05Z" transform="translate(0 -5.01)"/><path class="cls-16" d="M10.48,8c0-.32,0-.65,0-1,0,0,0-.07.08-.07h.33c.06,0,.07,0,.07.07v.88s0,0,0,0a0,0,0,0,0,0,0,.91.91,0,0,0,.07-.14c0-.11.12-.2.16-.31s0,0,.06,0h.43c.06,0,.07,0,0,.07l-.21.37-.19.32a0,0,0,0,0,0,.07l.3.52.1.18s0,.06,0,.06h-.45s0,0-.06,0L11,8.57s0-.06,0-.05,0,0,0,.06V9c0,.05,0,.07-.07.07h-.33c-.06,0-.08,0-.08-.07C10.48,8.62,10.48,8.3,10.48,8Z" transform="translate(0 -5.01)"/><path class="cls-16" d="M7.91,8.22c0,.24,0,.49,0,.73,0,.05,0,.07-.07.07H7.47c-.06,0-.07,0-.07-.08V7.48c0-.06,0-.08-.08-.08H7.06S7,7.39,7,7.34A2,2,0,0,0,7,7s0-.06.06-.06H8.26s.06,0,.06.05v.37a.05.05,0,0,1-.06.06H8a.05.05,0,0,0-.06.06C7.92,7.71,7.91,8,7.91,8.22Z" transform="translate(0 -5.01)"/><path class="cls-16" d="M8.91,8.19a.82.82,0,0,1,.48-.71.73.73,0,0,1,.56,0,.77.77,0,0,1,.44.35s0,0,0,.07L10.09,8A.05.05,0,0,1,10,8a.34.34,0,0,0-.56,0,.36.36,0,0,0,0,.43.38.38,0,0,0,.42.15A.29.29,0,0,0,10,8.46s0,0,.06,0,.21.11.31.19,0,0,0,.07a.79.79,0,0,1-1.11.24A.84.84,0,0,1,8.91,8.19Z" transform="translate(0 -5.01)"/><path class="cls-16" d="M14.82,9a.63.63,0,0,1-.23,0,.52.52,0,0,1-.36-.3s0-.05,0-.06l.32-.09a.15.15,0,0,1,.16,0,.12.12,0,0,0,.1,0,.08.08,0,0,0,.08-.07.08.08,0,0,0,0-.09l-.13-.07-.29-.16a.42.42,0,0,1,0-.75.66.66,0,0,1,.58,0,.46.46,0,0,1,.33.26c0,.08,0,.09-.06.11L15,7.88s-.06,0-.08,0a.1.1,0,0,0-.1-.05s-.07,0-.08.06,0,0,0,.07L14.9,8c.08,0,.17.07.25.12a.45.45,0,0,1,.24.23.41.41,0,0,1-.05.45A.59.59,0,0,1,14.82,9Z" transform="translate(0 -5.01)"/><path class="cls-16" d="M13.47,8.31c0-.13,0-.26,0-.39s0-.06-.07-.06-.14,0-.14-.14V7.49s0-.06.06-.06.14,0,.14-.16a2.43,2.43,0,0,0,0-.27s0,0,.06,0h.37s0,0,0,0v.37s0,.06.06.06.14,0,.14.15V7.8s0,.06-.06.06S14,7.87,14,8v.42c0,.12,0,.16.15.16s.09,0,.08.09,0,.2,0,.29,0,0,0,0a1.29,1.29,0,0,1-.34,0,.34.34,0,0,1-.28-.33c0-.13,0-.26,0-.39Z" transform="translate(0 -5.01)"/><path class="cls-16" d="M8.36,8.22V7.5c0-.06,0-.08.07-.07h.34s.06,0,.06.06V9s0,.06-.06.06H8.42C8.37,9,8.36,9,8.36,9Z" transform="translate(0 -5.01)"/><path class="cls-16" d="M8.6,7.31H8.41s-.05,0-.05,0V7s0,0,.05,0h.37s.05,0,.05,0v.27s0,0-.05,0Z" transform="translate(0 -5.01)"/><path class="cls-17" d="M5.13,8.06s0,0-.06,0A0,0,0,0,1,5.13,8.06Z" transform="translate(0 -5.01)"/><path class="cls-18" d="M1.56,6s0,0,0,0S1.54,6,1.56,6Z" transform="translate(0 -5.01)"/><path class="cls-19" d="M2.63,5.73s0,0,0,0S2.61,5.72,2.63,5.73Z" transform="translate(0 -5.01)"/><path class="cls-20" d="M5.59,10.37s0,0,0,0S5.58,10.35,5.59,10.37Z" transform="translate(0 -5.01)"/><path class="cls-21" d="M4.35,11.23s0,0,0,0S4.37,11.24,4.35,11.23Z" transform="translate(0 -5.01)"/><path class="cls-22" d="M3.26,11.52s0,0,0,0S3.28,11.52,3.26,11.52Z" transform="translate(0 -5.01)"/><path class="cls-23" d="M2.07,11.82s0,0,0,0S2.09,11.82,2.07,11.82Z" transform="translate(0 -5.01)"/><path class="cls-16" d="M2.53,9.82c0,.06,0,0-.06.06L1.88,10l-.37.12c-.06,0-.08,0-.09-.06L1,8.37a1,1,0,0,1,0-.17s0,0,0-.06l.16-.05c.27-.09.55-.15.82-.23.06,0,.08,0,.09,0l.12.32s0,.06,0,.08a4.61,4.61,0,0,1-.53.15c-.05,0-.06,0-.05.08a.42.42,0,0,1,0,.16c0,.06,0,.07.1.05L2,8.66s.07,0,.08,0A1.89,1.89,0,0,0,2.2,9c0,.05,0,.07-.05.08l-.38.11a0,0,0,0,0,0,.06l.06.23s0,.05.06,0l.53-.15s.08,0,.09,0S2.51,9.7,2.53,9.82Z" transform="translate(0 -5.01)"/><path class="cls-16" d="M3,8.69a.89.89,0,0,1,.28-.62.79.79,0,0,1,1-.06.84.84,0,0,1,.34.59c0,.05,0,.06-.06.07l-.83.22-.15,0s0,0,0,.05a.36.36,0,0,0,.55-.08.11.11,0,0,1,.11-.08l.32,0s.06,0,0,.06a.82.82,0,0,1-.46.59.63.63,0,0,1-.48.06A.8.8,0,0,1,3,8.87.55.55,0,0,1,3,8.69Z" transform="translate(0 -5.01)"/><path class="cls-16" d="M3.14,9.65s0,0-.05,0l-.24.07-.14.05s0,0-.06,0c-.14-.56-.29-1.12-.44-1.69,0-.07,0-.15,0-.22s0-.06,0-.07l.37-.11s.07,0,.09.05l.27,1.09.21.8Z" transform="translate(0 -5.01)"/><path class="cls-2" d="M12.46,8.06H12.2s0,0,0-.05a.18.18,0,0,1,.08-.11.39.39,0,0,1,.45,0l.05.06s0,.06,0,.09,0,0-.08,0Z" transform="translate(0 -5.01)"/><path class="cls-2" d="M3.87,8.27a.2.2,0,0,1,.18.11s0,0,0,.07l-.5.13c-.06,0-.07,0-.06-.05l0-.08A.42.42,0,0,1,3.87,8.27Z" transform="translate(0 -5.01)"/></svg>